<svg width="568.9983520507812px" height="121.60000610351562px" xmlns="http://www.w3.org/2000/svg" viewBox="-34.499176025390625 14.199996948242188 568.9983520507812 121.60000610351562" style="background: rgba(0, 0, 0, 0);" preserveAspectRatio="xMidYMid"><defs><linearGradient id="editing-shiny-gradient" x1="0.04322727117869957" x2="0.9567727288213004" y1="0.2966316784620999" y2="0.7033683215379001" gradientUnits="objectBoundingBox"><stop offset="0.0" stop-color="#ffb200"></stop><stop offset="0.5" stop-color="#e10057"></stop><stop offset="1.0" stop-color="#5a1a80"></stop></linearGradient><linearGradient id="editing-shiny-gradient2" x1="0" x2="0" y1="0" y2="1"><stop offset="0.2" stop-color="#fff" stop-opacity="0.8"></stop><stop offset="0.8" stop-color="#fff" stop-opacity="0"></stop></linearGradient><filter id="editing-shiny2" x="-100%" y="-100%" width="300%" height="300%"><feMorphology operator="erode" radius="2"></feMorphology></filter><filter id="editing-shiny" x="-100%" y="-100%" width="300%" height="300%"><feFlood flood-color="#fff" result="flood"></feFlood><feConvolveMatrix in="SourceGraphic" result="conv" order="8,8" divisor="1" kernelMatrix="0 0 0 0 0 0 0 0 0 0 0 1 1 0 0 0 0 0 0 1 1 0 0 0 0 0 1 0 0 1 0 0 0 0 1 0 0 1 0 0 0 1 0 0 0 0 1 0 0 1 1 0 0 1 1 0 0 0 0 1 1 0 0 0 "></feConvolveMatrix><feOffset dx="0" dy="4" in="conv" result="offset"></feOffset><feComposite operator="in" in="flood" in2="offset" result="comp"></feComposite><feGaussianBlur in="offset" stdDeviation="3" result="shadow"></feGaussianBlur><feColorMatrix in="shadow" type="matrix" values="0.7 0 0 0 0  0 0.7 0 0 0  0 0 0.7 0 0  0 0 0 0.3 0" result="dark-shadow"></feColorMatrix><feOffset dx="0" dy="4" in="dark-shadow" result="offset-shadow"></feOffset><feOffset dx="0" dy="2" in="conv" result="offset-2"></feOffset><feComposite operator="out" in="offset" in2="offset-2" result="edge-diff"></feComposite><feGaussianBlur in="edge-diff" stdDeviation="1" result="edge-blur"></feGaussianBlur><feColorMatrix in="edge-blur" result="edge-shadow" type="matrix" values="0 0 0 0 0  0 0 0 0 0  0 0 0 0 0  0 0 0 0.5 0"></feColorMatrix><feComposite operator="in" in="edge-shadow" in2="offset" result="edge-shadow-in"></feComposite><feOffset dx="0" dy="1" in="edge-shadow-in" result="edge-shadow-final"></feOffset><feMerge result="out"><feMergeNode in="offset-shadow"></feMergeNode><feMergeNode in="comp"></feMergeNode><feMergeNode in="edge-shadow-final"></feMergeNode><feMergeNode in="SourceGraphic"></feMergeNode></feMerge></filter></defs><g filter="url(#editing-shiny)"><g transform="translate(47.833759903907776, 97.42999649047852)"><path d="M34.50-13.25L34.50-13.25L34.50-13.25Q36.16-12.03 36.16-9.44L36.16-9.44L36.16-9.44Q36.16-6.85 35.04-5.02L35.04-5.02L35.04-5.02Q33.92-3.20 31.74-1.79L31.74-1.79L31.74-1.79Q27.07 1.22 18.91 1.22L18.91 1.22L18.91 1.22Q10.75 1.22 6.30-3.04L6.30-3.04L6.30-3.04Q1.86-7.30 1.86-14.85L1.86-14.85L1.86-14.85Q1.86-25.54 7.42-33.66L7.42-33.66L7.42-33.66Q11.65-39.68 19.20-42.24L19.20-42.24L19.20-42.24Q23.10-43.52 26.94-43.52L26.94-43.52L26.94-43.52Q30.78-43.52 33.15-43.01L33.15-43.01L33.15-43.01Q35.52-42.50 37.31-41.47L37.31-41.47L37.31-41.47Q41.22-39.23 41.22-35.65L41.22-35.65L41.22-35.65Q41.22-32.38 38.14-29.95L38.14-29.95L38.14-29.95Q35.33-27.78 33.02-27.78L33.02-27.78L33.02-27.78Q30.72-27.78 29.76-28.10L29.76-28.10L29.76-28.10Q30.02-30.40 30.02-31.90L30.02-31.90L30.02-31.90Q30.02-33.41 29.95-34.50L29.95-34.50L29.95-34.50Q29.89-35.58 29.57-36.61L29.57-36.61L29.57-36.61Q28.93-38.98 26.98-38.98L26.98-38.98L26.98-38.98Q25.02-38.98 23.07-37.15L23.07-37.15L23.07-37.15Q21.12-35.33 19.46-32.26L19.46-32.26L19.46-32.26Q15.68-25.28 15.68-17.02L15.68-17.02L15.68-17.02Q15.68-13.06 17.92-10.78L17.92-10.78L17.92-10.78Q20.16-8.51 24.96-8.51L24.96-8.51L24.96-8.51Q28.54-8.51 31.94-10.88L31.94-10.88L31.94-10.88Q33.41-11.90 34.50-13.25ZM69.57 1.28L69.57 1.28L69.57 1.28Q61.38 1.28 60.61-10.37L60.61-10.37L49.60-10.37L49.60-10.37Q48.32-7.42 47.42-4.86L47.42-4.86L45.76 0L36.80 0L56.96-42.24L70.72-42.24L73.41-11.14L73.41-11.14Q74.05-4.42 76.61-2.43L76.61-2.43L76.61-2.43Q74.75 1.28 69.57 1.28ZM55.10-23.17L51.58-15.04L60.42-15.04L59.65-31.49L59.65-33.22L55.10-23.17ZM93.44 0L79.74 0L87.55-42.05L87.55-42.05Q93.89-42.75 103.14-42.75L103.14-42.75L103.14-42.75Q112.38-42.75 116.67-40.06L116.67-40.06L116.67-40.06Q120.96-37.38 120.96-31.97L120.96-31.97L120.96-31.97Q120.96-26.56 118.18-23.17L118.18-23.17L118.18-23.17Q115.39-19.78 110.59-18.69L110.59-18.69L110.59-18.69Q111.68-13.38 114.18-9.09L114.18-9.09L114.18-9.09Q116.48-5.06 119.17-3.78L119.17-3.78L119.17-3.78Q118.21-1.09 116.26 0.10L116.26 0.10L116.26 0.10Q114.30 1.28 111.52 1.28L111.52 1.28L111.52 1.28Q108.74 1.28 106.56-0.35L106.56-0.35L106.56-0.35Q104.38-1.98 102.66-4.99L102.66-4.99L102.66-4.99Q99.01-11.52 98.62-21.82L98.62-21.82L99.07-21.82L99.07-21.82Q103.81-21.95 106.18-24.42L106.18-24.42L106.18-24.42Q108.54-26.88 108.54-32.06L108.54-32.06L108.54-32.06Q108.54-38.53 103.10-38.78L103.10-38.78L101.70-38.78L101.70-38.78Q101.12-38.78 100.80-38.72L100.80-38.72L93.44 0ZM151.23-9.86L151.23-9.86L151.23-9.86Q152.45-8.32 152.45-5.82L152.45-5.82L152.45-5.82Q152.45-2.37 149.89-0.54L149.89-0.54L149.89-0.54Q147.33 1.28 143.30 1.28L143.30 1.28L143.30 1.28Q140.99 1.28 137.47 0.77L137.47 0.77L137.47 0.77Q130.56-0.32 128.45-0.32L128.45-0.32L128.45-0.32Q126.34-0.32 125.50-0.22L125.50-0.22L125.50-0.22Q124.67-0.13 123.33 0L123.33 0L131.20-42.24L158.78-42.24L158.78-42.24Q158.78-38.34 156.90-36.29L156.90-36.29L156.90-36.29Q155.01-34.24 151.30-34.24L151.30-34.24L151.30-34.24Q147.58-34.24 143.81-35.97L143.81-35.97L141.82-24.77L153.22-24.77L153.22-24.77Q153.22-21.38 151.55-19.49L151.55-19.49L151.55-19.49Q149.89-17.60 147.10-17.60L147.10-17.60L147.10-17.60Q144.32-17.60 142.59-18.24L142.59-18.24L142.59-18.24Q140.86-18.88 140.67-19.07L140.67-19.07L138.37-6.98L138.37-6.98Q139.90-6.78 142.78-6.78L142.78-6.78L142.78-6.78Q147.71-6.78 151.23-9.86ZM160.32-39.87L160.32-39.87L160.32-39.87Q163.33-43.39 168.32-43.39L168.32-43.39L168.32-43.39Q172.29-43.39 174.40-41.86L174.40-41.86L174.40-41.86Q176.51-40.26 177.92-36.35L177.92-36.35L180.61-28.74L190.27-42.18L198.91-42.18L183.23-21.38L187.26-9.98L187.26-9.98Q188.16-7.42 189.73-5.54L189.73-5.54L189.73-5.54Q191.30-3.65 192.70-3.33L192.70-3.33L192.70-3.33Q191.42-0.90 189.22 0.19L189.22 0.19L189.22 0.19Q187.01 1.28 183.78 1.28L183.78 1.28L183.78 1.28Q180.54 1.28 178.27-0.83L178.27-0.83L178.27-0.83Q176-2.94 174.27-7.68L174.27-7.68L172.42-12.80L162.75 0L154.88 0L169.60-20.42L164.99-33.28L164.99-33.28Q163.97-36.10 162.94-37.54L162.94-37.54L162.94-37.54Q161.92-38.98 160.32-39.87ZM222.02-29.57L222.02-29.57L222.02-29.57Q222.98-31.49 222.98-33.28L222.98-33.28L222.98-33.28Q222.98-35.07 222.78-36.06L222.78-36.06L222.78-36.06Q222.59-37.06 222.14-37.82L222.14-37.82L222.14-37.82Q221.18-39.49 219.26-39.49L219.26-39.49L219.26-39.49Q216.90-39.49 214.98-37.76L214.98-37.76L214.98-37.76Q212.93-35.97 212.93-33.15L212.93-33.15L212.93-33.15Q212.93-31.36 214.18-29.98L214.18-29.98L214.18-29.98Q215.42-28.61 217.34-27.33L217.34-27.33L217.34-27.33Q219.26-26.05 221.44-24.77L221.44-24.77L221.44-24.77Q223.62-23.49 225.54-21.95L225.54-21.95L225.54-21.95Q229.95-18.43 229.95-13.70L229.95-13.70L229.95-13.70Q229.95-10.50 228.26-7.78L228.26-7.78L228.26-7.78Q226.56-5.06 223.74-3.07L223.74-3.07L223.74-3.07Q217.60 1.28 209.47 1.28L209.47 1.28L209.47 1.28Q202.88 1.28 199.49-0.86L199.49-0.86L199.49-0.86Q196.10-3.01 196.10-6.27L196.10-6.27L196.10-6.27Q196.10-12.10 200.64-13.57L200.64-13.57L200.64-13.57Q201.92-14.02 203.87-14.02L203.87-14.02L203.87-14.02Q205.82-14.02 208.06-13.18L208.06-13.18L208.06-13.18Q207.04-10.56 207.04-8.19L207.04-8.19L207.04-8.19Q207.04-3.07 210.69-3.07L210.69-3.07L210.69-3.07Q213.06-3.07 215.01-4.80L215.01-4.80L215.01-4.80Q216.96-6.53 216.96-8.48L216.96-8.48L216.96-8.48Q216.96-10.43 215.71-11.84L215.71-11.84L215.71-11.84Q214.46-13.25 212.61-14.37L212.61-14.37L212.61-14.37Q210.75-15.49 208.61-16.58L208.61-16.58L208.61-16.58Q206.46-17.66 204.61-19.20L204.61-19.20L204.61-19.20Q200.26-22.72 200.26-28.35L200.26-28.35L200.26-28.35Q200.26-32 202.05-34.85L202.05-34.85L202.05-34.85Q203.84-37.70 206.72-39.62L206.72-39.62L206.72-39.62Q212.48-43.52 219.55-43.52L219.55-43.52L219.55-43.52Q226.62-43.52 230.05-41.41L230.05-41.41L230.05-41.41Q233.47-39.30 233.47-35.71L233.47-35.71L233.47-35.71Q233.47-32.58 231.04-30.59L231.04-30.59L231.04-30.59Q228.93-28.93 226.37-28.93L226.37-28.93L226.37-28.93Q223.81-28.93 222.02-29.57ZM258.69-4.80L258.69-4.80L258.69-4.80Q258.69-9.28 260.48-18.24L260.48-18.24L251.01-18.24L247.49 0L234.11 0L242.24-42.24L255.74-42.24L252.03-23.36L261.50-23.36L265.02-42.24L278.53-42.24L278.53-42.24Q277.63-37.50 276.48-32.19L276.48-32.19L274.30-21.76L274.30-21.76Q271.87-9.60 271.87-4.29L271.87-4.29L271.87-4.29Q271.87-2.11 272.58-0.90L272.58-0.90L272.58-0.90Q269.38 1.28 265.63 1.28L265.63 1.28L265.63 1.28Q261.89 1.28 260.29-0.51L260.29-0.51L260.29-0.51Q258.69-2.30 258.69-4.80ZM281.02-15.62L281.02-15.62L281.02-15.62Q281.02-27.71 287.30-35.33L287.30-35.33L287.30-35.33Q293.95-43.58 305.54-43.58L305.54-43.58L305.54-43.58Q313.92-43.58 318.14-39.52L318.14-39.52L318.14-39.52Q322.37-35.46 322.37-26.88L322.37-26.88L322.37-26.88Q322.37-13.82 315.71-6.21L315.71-6.21L315.71-6.21Q309.12 1.28 298.05 1.28L298.05 1.28L298.05 1.28Q289.41 1.28 285.22-3.04L285.22-3.04L285.22-3.04Q281.02-7.36 281.02-15.62ZM297.86-28.86L297.86-28.86L297.86-28.86Q294.98-17.34 294.98-8.26L294.98-8.26L294.98-8.26Q294.98-6.08 295.71-4.67L295.71-4.67L295.71-4.67Q296.45-3.26 298.40-3.26L298.40-3.26L298.40-3.26Q300.35-3.26 301.57-4.19L301.57-4.19L301.57-4.19Q302.78-5.12 303.74-7.23L303.74-7.23L303.74-7.23Q305.28-10.69 306.72-18.02L306.72-18.02L306.72-18.02Q308.16-25.34 308.29-28.38L308.29-28.38L308.29-28.38Q308.42-31.42 308.42-33.73L308.42-33.73L308.42-33.73Q308.42-36.03 307.71-37.50L307.71-37.50L307.71-37.50Q307.01-38.98 305.12-38.98L305.12-38.98L305.12-38.98Q303.23-38.98 301.95-37.82L301.95-37.82L301.95-37.82Q299.58-35.65 297.86-28.86ZM350.53-42.69L350.53-42.69L350.53-42.69Q366.21-42.69 366.21-31.62L366.21-31.62L366.21-31.62Q366.21-25.54 362.30-21.89L362.30-21.89L362.30-21.89Q358.46-18.24 351.74-18.24L351.74-18.24L351.74-18.24Q348.61-18.24 346.18-20.03L346.18-20.03L346.18-20.03Q345.02-20.80 344.26-21.82L344.26-21.82L344.26-21.82Q348.93-21.82 351.39-24.67L351.39-24.67L351.39-24.67Q353.86-27.52 353.86-33.09L353.86-33.09L353.86-33.09Q353.86-38.66 348.35-38.66L348.35-38.66L346.82-38.66L346.82-38.66Q346.43-38.66 346.11-38.59L346.11-38.59L338.75 0L324.86 0L332.74-41.92L332.74-41.92Q339.58-42.56 343.55-42.62L343.55-42.62L343.55-42.62Q347.52-42.69 350.53-42.69ZM391.49-29.57L391.49-29.57L391.49-29.57Q392.45-31.49 392.45-33.28L392.45-33.28L392.45-33.28Q392.45-35.07 392.26-36.06L392.26-36.06L392.26-36.06Q392.06-37.06 391.62-37.82L391.62-37.82L391.62-37.82Q390.66-39.49 388.74-39.49L388.74-39.49L388.74-39.49Q386.37-39.49 384.45-37.76L384.45-37.76L384.45-37.76Q382.40-35.97 382.40-33.15L382.40-33.15L382.40-33.15Q382.40-31.36 383.65-29.98L383.65-29.98L383.65-29.98Q384.90-28.61 386.82-27.33L386.82-27.33L386.82-27.33Q388.74-26.05 390.91-24.77L390.91-24.77L390.91-24.77Q393.09-23.49 395.01-21.95L395.01-21.95L395.01-21.95Q399.42-18.43 399.42-13.70L399.42-13.70L399.42-13.70Q399.42-10.50 397.73-7.78L397.73-7.78L397.73-7.78Q396.03-5.06 393.22-3.07L393.22-3.07L393.22-3.07Q387.07 1.28 378.94 1.28L378.94 1.28L378.94 1.28Q372.35 1.28 368.96-0.86L368.96-0.86L368.96-0.86Q365.57-3.01 365.57-6.27L365.57-6.27L365.57-6.27Q365.57-12.10 370.11-13.57L370.11-13.57L370.11-13.57Q371.39-14.02 373.34-14.02L373.34-14.02L373.34-14.02Q375.30-14.02 377.54-13.18L377.54-13.18L377.54-13.18Q376.51-10.56 376.51-8.19L376.51-8.19L376.51-8.19Q376.51-3.07 380.16-3.07L380.16-3.07L380.16-3.07Q382.53-3.07 384.48-4.80L384.48-4.80L384.48-4.80Q386.43-6.53 386.43-8.48L386.43-8.48L386.43-8.48Q386.43-10.43 385.18-11.84L385.18-11.84L385.18-11.84Q383.94-13.25 382.08-14.37L382.08-14.37L382.08-14.37Q380.22-15.49 378.08-16.58L378.08-16.58L378.08-16.58Q375.94-17.66 374.08-19.20L374.08-19.20L374.08-19.20Q369.73-22.72 369.73-28.35L369.73-28.35L369.73-28.35Q369.73-32 371.52-34.85L371.52-34.85L371.52-34.85Q373.31-37.70 376.19-39.62L376.19-39.62L376.19-39.62Q381.95-43.52 389.02-43.52L389.02-43.52L389.02-43.52Q396.10-43.52 399.52-41.41L399.52-41.41L399.52-41.41Q402.94-39.30 402.94-35.71L402.94-35.71L402.94-35.71Q402.94-32.58 400.51-30.59L400.51-30.59L400.51-30.59Q398.40-28.93 395.84-28.93L395.84-28.93L395.84-28.93Q393.28-28.93 391.49-29.57Z" fill="url(#editing-shiny-gradient)"></path></g></g><g filter="url(#editing-shiny2)"><g transform="translate(47.717610001564026, 97.43000411987305)"><path d="M34.50-13.25L34.50-13.25L34.50-13.25Q36.16-12.03 36.16-9.44L36.16-9.44L36.16-9.44Q36.16-6.85 35.04-5.02L35.04-5.02L35.04-5.02Q33.92-3.20 31.74-1.79L31.74-1.79L31.74-1.79Q27.07 1.22 18.91 1.22L18.91 1.22L18.91 1.22Q10.75 1.22 6.30-3.04L6.30-3.04L6.30-3.04Q1.86-7.30 1.86-14.85L1.86-14.85L1.86-14.85Q1.86-25.54 7.42-33.66L7.42-33.66L7.42-33.66Q11.65-39.68 19.20-42.24L19.20-42.24L19.20-42.24Q23.10-43.52 26.94-43.52L26.94-43.52L26.94-43.52Q30.78-43.52 33.15-43.01L33.15-43.01L33.15-43.01Q35.52-42.50 37.31-41.47L37.31-41.47L37.31-41.47Q41.22-39.23 41.22-35.65L41.22-35.65L41.22-35.65Q41.22-32.38 38.14-29.95L38.14-29.95L38.14-29.95Q35.33-27.78 33.02-27.78L33.02-27.78L33.02-27.78Q30.72-27.78 29.76-28.10L29.76-28.10L29.76-28.10Q30.02-30.40 30.02-31.90L30.02-31.90L30.02-31.90Q30.02-33.41 29.95-34.50L29.95-34.50L29.95-34.50Q29.89-35.58 29.57-36.61L29.57-36.61L29.57-36.61Q28.93-38.98 26.98-38.98L26.98-38.98L26.98-38.98Q25.02-38.98 23.07-37.15L23.07-37.15L23.07-37.15Q21.12-35.33 19.46-32.26L19.46-32.26L19.46-32.26Q15.68-25.28 15.68-17.02L15.68-17.02L15.68-17.02Q15.68-13.06 17.92-10.78L17.92-10.78L17.92-10.78Q20.16-8.51 24.96-8.51L24.96-8.51L24.96-8.51Q28.54-8.51 31.94-10.88L31.94-10.88L31.94-10.88Q33.41-11.90 34.50-13.25ZM69.57 1.28L69.57 1.28L69.57 1.28Q61.38 1.28 60.61-10.37L60.61-10.37L49.60-10.37L49.60-10.37Q48.32-7.42 47.42-4.86L47.42-4.86L45.76 0L36.80 0L56.96-42.24L70.72-42.24L73.41-11.14L73.41-11.14Q74.05-4.42 76.61-2.43L76.61-2.43L76.61-2.43Q74.75 1.28 69.57 1.28ZM55.10-23.17L51.58-15.04L60.42-15.04L59.65-31.49L59.65-33.22L55.10-23.17ZM93.44 0L79.74 0L87.55-42.05L87.55-42.05Q93.89-42.75 103.14-42.75L103.14-42.75L103.14-42.75Q112.38-42.75 116.67-40.06L116.67-40.06L116.67-40.06Q120.96-37.38 120.96-31.97L120.96-31.97L120.96-31.97Q120.96-26.56 118.18-23.17L118.18-23.17L118.18-23.17Q115.39-19.78 110.59-18.69L110.59-18.69L110.59-18.69Q111.68-13.38 114.18-9.09L114.18-9.09L114.18-9.09Q116.48-5.06 119.17-3.78L119.17-3.78L119.17-3.78Q118.21-1.09 116.26 0.10L116.26 0.10L116.26 0.10Q114.30 1.28 111.52 1.28L111.52 1.28L111.52 1.28Q108.74 1.28 106.56-0.35L106.56-0.35L106.56-0.35Q104.38-1.98 102.66-4.99L102.66-4.99L102.66-4.99Q99.01-11.52 98.62-21.82L98.62-21.82L99.07-21.82L99.07-21.82Q103.81-21.95 106.18-24.42L106.18-24.42L106.18-24.42Q108.54-26.88 108.54-32.06L108.54-32.06L108.54-32.06Q108.54-38.53 103.10-38.78L103.10-38.78L101.70-38.78L101.70-38.78Q101.12-38.78 100.80-38.72L100.80-38.72L93.44 0ZM151.23-9.86L151.23-9.86L151.23-9.86Q152.45-8.32 152.45-5.82L152.45-5.82L152.45-5.82Q152.45-2.37 149.89-0.54L149.89-0.54L149.89-0.54Q147.33 1.28 143.30 1.28L143.30 1.28L143.30 1.28Q140.99 1.28 137.47 0.77L137.47 0.77L137.47 0.77Q130.56-0.32 128.45-0.32L128.45-0.32L128.45-0.32Q126.34-0.32 125.50-0.22L125.50-0.22L125.50-0.22Q124.67-0.13 123.33 0L123.33 0L131.20-42.24L158.78-42.24L158.78-42.24Q158.78-38.34 156.90-36.29L156.90-36.29L156.90-36.29Q155.01-34.24 151.30-34.24L151.30-34.24L151.30-34.24Q147.58-34.24 143.81-35.97L143.81-35.97L141.82-24.77L153.22-24.77L153.22-24.77Q153.22-21.38 151.55-19.49L151.55-19.49L151.55-19.49Q149.89-17.60 147.10-17.60L147.10-17.60L147.10-17.60Q144.32-17.60 142.59-18.24L142.59-18.24L142.59-18.24Q140.86-18.88 140.67-19.07L140.67-19.07L138.37-6.98L138.37-6.98Q139.90-6.78 142.78-6.78L142.78-6.78L142.78-6.78Q147.71-6.78 151.23-9.86ZM160.32-39.87L160.32-39.87L160.32-39.87Q163.33-43.39 168.32-43.39L168.32-43.39L168.32-43.39Q172.29-43.39 174.40-41.86L174.40-41.86L174.40-41.86Q176.51-40.26 177.92-36.35L177.92-36.35L180.61-28.74L190.27-42.18L198.91-42.18L183.23-21.38L187.26-9.98L187.26-9.98Q188.16-7.42 189.73-5.54L189.73-5.54L189.73-5.54Q191.30-3.65 192.70-3.33L192.70-3.33L192.70-3.33Q191.42-0.90 189.22 0.19L189.22 0.19L189.22 0.19Q187.01 1.28 183.78 1.28L183.78 1.28L183.78 1.28Q180.54 1.28 178.27-0.83L178.27-0.83L178.27-0.83Q176-2.94 174.27-7.68L174.27-7.68L172.42-12.80L162.75 0L154.88 0L169.60-20.42L164.99-33.28L164.99-33.28Q163.97-36.10 162.94-37.54L162.94-37.54L162.94-37.54Q161.92-38.98 160.32-39.87ZM222.02-29.57L222.02-29.57L222.02-29.57Q222.98-31.49 222.98-33.28L222.98-33.28L222.98-33.28Q222.98-35.07 222.78-36.06L222.78-36.06L222.78-36.06Q222.59-37.06 222.14-37.82L222.14-37.82L222.14-37.82Q221.18-39.49 219.26-39.49L219.26-39.49L219.26-39.49Q216.90-39.49 214.98-37.76L214.98-37.76L214.98-37.76Q212.93-35.97 212.93-33.15L212.93-33.15L212.93-33.15Q212.93-31.36 214.18-29.98L214.18-29.98L214.18-29.98Q215.42-28.61 217.34-27.33L217.34-27.33L217.34-27.33Q219.26-26.05 221.44-24.77L221.44-24.77L221.44-24.77Q223.62-23.49 225.54-21.95L225.54-21.95L225.54-21.95Q229.95-18.43 229.95-13.70L229.95-13.70L229.95-13.70Q229.95-10.50 228.26-7.78L228.26-7.78L228.26-7.78Q226.56-5.06 223.74-3.07L223.74-3.07L223.74-3.07Q217.60 1.28 209.47 1.28L209.47 1.28L209.47 1.28Q202.88 1.28 199.49-0.86L199.49-0.86L199.49-0.86Q196.10-3.01 196.10-6.27L196.10-6.27L196.10-6.27Q196.10-12.10 200.64-13.57L200.64-13.57L200.64-13.57Q201.92-14.02 203.87-14.02L203.87-14.02L203.87-14.02Q205.82-14.02 208.06-13.18L208.06-13.18L208.06-13.18Q207.04-10.56 207.04-8.19L207.04-8.19L207.04-8.19Q207.04-3.07 210.69-3.07L210.69-3.07L210.69-3.07Q213.06-3.07 215.01-4.80L215.01-4.80L215.01-4.80Q216.96-6.53 216.96-8.48L216.96-8.48L216.96-8.48Q216.96-10.43 215.71-11.84L215.71-11.84L215.71-11.84Q214.46-13.25 212.61-14.37L212.61-14.37L212.61-14.37Q210.75-15.49 208.61-16.58L208.61-16.58L208.61-16.58Q206.46-17.66 204.61-19.20L204.61-19.20L204.61-19.20Q200.26-22.72 200.26-28.35L200.26-28.35L200.26-28.35Q200.26-32 202.05-34.85L202.05-34.85L202.05-34.85Q203.84-37.70 206.72-39.62L206.72-39.62L206.72-39.62Q212.48-43.52 219.55-43.52L219.55-43.52L219.55-43.52Q226.62-43.52 230.05-41.41L230.05-41.41L230.05-41.41Q233.47-39.30 233.47-35.71L233.47-35.71L233.47-35.71Q233.47-32.58 231.04-30.59L231.04-30.59L231.04-30.59Q228.93-28.93 226.37-28.93L226.37-28.93L226.37-28.93Q223.81-28.93 222.02-29.57ZM258.69-4.80L258.69-4.80L258.69-4.80Q258.69-9.28 260.48-18.24L260.48-18.24L251.01-18.24L247.49 0L234.11 0L242.24-42.24L255.74-42.24L252.03-23.36L261.50-23.36L265.02-42.24L278.53-42.24L278.53-42.24Q277.63-37.50 276.48-32.19L276.48-32.19L274.30-21.76L274.30-21.76Q271.87-9.60 271.87-4.29L271.87-4.29L271.87-4.29Q271.87-2.11 272.58-0.90L272.58-0.90L272.58-0.90Q269.38 1.28 265.63 1.28L265.63 1.28L265.63 1.28Q261.89 1.28 260.29-0.51L260.29-0.51L260.29-0.51Q258.69-2.30 258.69-4.80ZM281.02-15.62L281.02-15.62L281.02-15.62Q281.02-27.71 287.30-35.33L287.30-35.33L287.30-35.33Q293.95-43.58 305.54-43.58L305.54-43.58L305.54-43.58Q313.92-43.58 318.14-39.52L318.14-39.52L318.14-39.52Q322.37-35.46 322.37-26.88L322.37-26.88L322.37-26.88Q322.37-13.82 315.71-6.21L315.71-6.21L315.71-6.21Q309.12 1.28 298.05 1.28L298.05 1.28L298.05 1.28Q289.41 1.28 285.22-3.04L285.22-3.04L285.22-3.04Q281.02-7.36 281.02-15.62ZM297.86-28.86L297.86-28.86L297.86-28.86Q294.98-17.34 294.98-8.26L294.98-8.26L294.98-8.26Q294.98-6.08 295.71-4.67L295.71-4.67L295.71-4.67Q296.45-3.26 298.40-3.26L298.40-3.26L298.40-3.26Q300.35-3.26 301.57-4.19L301.57-4.19L301.57-4.19Q302.78-5.12 303.74-7.23L303.74-7.23L303.74-7.23Q305.28-10.69 306.72-18.02L306.72-18.02L306.72-18.02Q308.16-25.34 308.29-28.38L308.29-28.38L308.29-28.38Q308.42-31.42 308.42-33.73L308.42-33.73L308.42-33.73Q308.42-36.03 307.71-37.50L307.71-37.50L307.71-37.50Q307.01-38.98 305.12-38.98L305.12-38.98L305.12-38.98Q303.23-38.98 301.95-37.82L301.95-37.82L301.95-37.82Q299.58-35.65 297.86-28.86ZM350.53-42.69L350.53-42.69L350.53-42.69Q366.21-42.69 366.21-31.62L366.21-31.62L366.21-31.62Q366.21-25.54 362.30-21.89L362.30-21.89L362.30-21.89Q358.46-18.24 351.74-18.24L351.74-18.24L351.74-18.24Q348.61-18.24 346.18-20.03L346.18-20.03L346.18-20.03Q345.02-20.80 344.26-21.82L344.26-21.82L344.26-21.82Q348.93-21.82 351.39-24.67L351.39-24.67L351.39-24.67Q353.86-27.52 353.86-33.09L353.86-33.09L353.86-33.09Q353.86-38.66 348.35-38.66L348.35-38.66L346.82-38.66L346.82-38.66Q346.43-38.66 346.11-38.59L346.11-38.59L338.75 0L324.86 0L332.74-41.92L332.74-41.92Q339.58-42.56 343.55-42.62L343.55-42.62L343.55-42.62Q347.52-42.69 350.53-42.69ZM391.49-29.57L391.49-29.57L391.49-29.57Q392.45-31.49 392.45-33.28L392.45-33.28L392.45-33.28Q392.45-35.07 392.26-36.06L392.26-36.06L392.26-36.06Q392.06-37.06 391.62-37.82L391.62-37.82L391.62-37.82Q390.66-39.49 388.74-39.49L388.74-39.49L388.74-39.49Q386.37-39.49 384.45-37.76L384.45-37.76L384.45-37.76Q382.40-35.97 382.40-33.15L382.40-33.15L382.40-33.15Q382.40-31.36 383.65-29.98L383.65-29.98L383.65-29.98Q384.90-28.61 386.82-27.33L386.82-27.33L386.82-27.33Q388.74-26.05 390.91-24.77L390.91-24.77L390.91-24.77Q393.09-23.49 395.01-21.95L395.01-21.95L395.01-21.95Q399.42-18.43 399.42-13.70L399.42-13.70L399.42-13.70Q399.42-10.50 397.73-7.78L397.73-7.78L397.73-7.78Q396.03-5.06 393.22-3.07L393.22-3.07L393.22-3.07Q387.07 1.28 378.94 1.28L378.94 1.28L378.94 1.28Q372.35 1.28 368.96-0.86L368.96-0.86L368.96-0.86Q365.57-3.01 365.57-6.27L365.57-6.27L365.57-6.27Q365.57-12.10 370.11-13.57L370.11-13.57L370.11-13.57Q371.39-14.02 373.34-14.02L373.34-14.02L373.34-14.02Q375.30-14.02 377.54-13.18L377.54-13.18L377.54-13.18Q376.51-10.56 376.51-8.19L376.51-8.19L376.51-8.19Q376.51-3.07 380.16-3.07L380.16-3.07L380.16-3.07Q382.53-3.07 384.48-4.80L384.48-4.80L384.48-4.80Q386.43-6.53 386.43-8.48L386.43-8.48L386.43-8.48Q386.43-10.43 385.18-11.84L385.18-11.84L385.18-11.84Q383.94-13.25 382.08-14.37L382.08-14.37L382.08-14.37Q380.22-15.49 378.08-16.58L378.08-16.58L378.08-16.58Q375.94-17.66 374.08-19.20L374.08-19.20L374.08-19.20Q369.73-22.72 369.73-28.35L369.73-28.35L369.73-28.35Q369.73-32 371.52-34.85L371.52-34.85L371.52-34.85Q373.31-37.70 376.19-39.62L376.19-39.62L376.19-39.62Q381.95-43.52 389.02-43.52L389.02-43.52L389.02-43.52Q396.10-43.52 399.52-41.41L399.52-41.41L399.52-41.41Q402.94-39.30 402.94-35.71L402.94-35.71L402.94-35.71Q402.94-32.58 400.51-30.59L400.51-30.59L400.51-30.59Q398.40-28.93 395.84-28.93L395.84-28.93L395.84-28.93Q393.28-28.93 391.49-29.57Z" fill="url(#editing-shiny-gradient2)"></path></g></g><style>text {
  font-size: 64px;
  font-family: Arial Black;
  dominant-baseline: central;
  text-anchor: middle;
}</style></svg>